<?xml version="1.0" encoding="UTF-8" standalone="no"?>
<!-- Generator: Adobe Illustrator 18.1.1, SVG Export Plug-In . SVG Version: 6.00 Build 0)  -->

<svg
   xmlns:dc="http://purl.org/dc/elements/1.1/"
   xmlns:cc="http://creativecommons.org/ns#"
   xmlns:rdf="http://www.w3.org/1999/02/22-rdf-syntax-ns#"
   xmlns:svg="http://www.w3.org/2000/svg"
   xmlns="http://www.w3.org/2000/svg"
   xmlns:sodipodi="http://sodipodi.sourceforge.net/DTD/sodipodi-0.dtd"
   xmlns:inkscape="http://www.inkscape.org/namespaces/inkscape"
   version="1.1"
   id="Capa_1"
   x="0px"
   y="0px"
   viewBox="0 0 27.857 27.857"
   style="enable-background:new 0 0 27.857 27.857;"
   xml:space="preserve"
   sodipodi:docname="black-envelope.svg"
   inkscape:version="0.92.3 (2405546, 2018-03-11)"><metadata
   id="metadata2476"><rdf:RDF><cc:Work
       rdf:about=""><dc:format>image/svg+xml</dc:format><dc:type
         rdf:resource="http://purl.org/dc/dcmitype/StillImage" /></cc:Work></rdf:RDF></metadata><defs
   id="defs2474" /><sodipodi:namedview
   pagecolor="#ffffff"
   bordercolor="#666666"
   borderopacity="1"
   objecttolerance="10"
   gridtolerance="10"
   guidetolerance="10"
   inkscape:pageopacity="0"
   inkscape:pageshadow="2"
   inkscape:window-width="724"
   inkscape:window-height="480"
   id="namedview2472"
   showgrid="false"
   inkscape:zoom="8.4718382"
   inkscape:cx="13.9285"
   inkscape:cy="13.9285"
   inkscape:window-x="0"
   inkscape:window-y="0"
   inkscape:window-maximized="0"
   inkscape:current-layer="Capa_1" />
<g
   id="g2439">
	<g
   id="g2437">
		<path
   style="fill:#cfa94f;fill-opacity:1"
   d="M2.203,5.331l10.034,7.948c0.455,0.36,1.082,0.52,1.691,0.49c0.608,0.03,1.235-0.129,1.69-0.49    l10.034-7.948c0.804-0.633,0.622-1.152-0.398-1.152H13.929H2.604C1.583,4.179,1.401,4.698,2.203,5.331z"
   id="path2433" />
		<path
   style="fill:#cfa94f;fill-opacity:1"
   d="M26.377,7.428l-10.965,8.325c-0.41,0.308-0.947,0.458-1.482,0.451    c-0.536,0.007-1.073-0.144-1.483-0.451L1.48,7.428C0.666,6.811,0,7.142,0,8.163v13.659c0,1.021,0.836,1.857,1.857,1.857h12.071H26    c1.021,0,1.857-0.836,1.857-1.857V8.163C27.857,7.142,27.191,6.811,26.377,7.428z"
   id="path2435" />
	</g>
</g>
<g
   id="g2441">
</g>
<g
   id="g2443">
</g>
<g
   id="g2445">
</g>
<g
   id="g2447">
</g>
<g
   id="g2449">
</g>
<g
   id="g2451">
</g>
<g
   id="g2453">
</g>
<g
   id="g2455">
</g>
<g
   id="g2457">
</g>
<g
   id="g2459">
</g>
<g
   id="g2461">
</g>
<g
   id="g2463">
</g>
<g
   id="g2465">
</g>
<g
   id="g2467">
</g>
<g
   id="g2469">
</g>
</svg>